<svg xmlns="http://www.w3.org/2000/svg"  viewBox="0 0 64 64" width="64px" height="64px"><linearGradient id="gVFJ1KZfHJRLi2eJO6A2~a" x1="32" x2="32" y1="-1019" y2="-963.988" gradientTransform="translate(0 1024)" gradientUnits="userSpaceOnUse" spreadMethod="reflect"><stop offset="0" stop-color="#1a6dff"/><stop offset="1" stop-color="#c822ff"/></linearGradient><path fill="url(#gVFJ1KZfHJRLi2eJO6A2~a)" d="M51.12,15.71l-8.83-8.83C41.73,6.31,40.97,6,40.17,6H15c-1.65,0-3,1.35-3,3v46 c0,1.65,1.35,3,3,3h34c1.65,0,3-1.35,3-3V17.83C52,17.03,51.69,16.27,51.12,15.71z M42,9.41L48.59,16H43c-0.55,0-1-0.45-1-1V9.41z M50,55c0,0.55-0.45,1-1,1H15c-0.55,0-1-0.45-1-1V9c0-0.55,0.45-1,1-1h25v7c0,1.65,1.35,3,3,3h7V55z"/><linearGradient id="gVFJ1KZfHJRLi2eJO6A2~b" x1="34" x2="34" y1="32" y2="34" gradientUnits="userSpaceOnUse" spreadMethod="reflect"><stop offset="0" stop-color="#6dc7ff"/><stop offset="1" stop-color="#e6abff"/></linearGradient><path fill="url(#gVFJ1KZfHJRLi2eJO6A2~b)" d="M27 32H41V34H27z"/><linearGradient id="gVFJ1KZfHJRLi2eJO6A2~c" x1="34" x2="34" y1="37" y2="39" gradientUnits="userSpaceOnUse" spreadMethod="reflect"><stop offset="0" stop-color="#6dc7ff"/><stop offset="1" stop-color="#e6abff"/></linearGradient><path fill="url(#gVFJ1KZfHJRLi2eJO6A2~c)" d="M27 37H41V39H27z"/><linearGradient id="gVFJ1KZfHJRLi2eJO6A2~d" x1="34" x2="34" y1="42" y2="44" gradientUnits="userSpaceOnUse" spreadMethod="reflect"><stop offset="0" stop-color="#6dc7ff"/><stop offset="1" stop-color="#e6abff"/></linearGradient><path fill="url(#gVFJ1KZfHJRLi2eJO6A2~d)" d="M27 42H41V44H27z"/><linearGradient id="gVFJ1KZfHJRLi2eJO6A2~e" x1="24" x2="24" y1="32" y2="34" gradientUnits="userSpaceOnUse" spreadMethod="reflect"><stop offset="0" stop-color="#6dc7ff"/><stop offset="1" stop-color="#e6abff"/></linearGradient><path fill="url(#gVFJ1KZfHJRLi2eJO6A2~e)" d="M23 32H25V34H23z"/><linearGradient id="gVFJ1KZfHJRLi2eJO6A2~f" x1="24" x2="24" y1="37" y2="39" gradientUnits="userSpaceOnUse" spreadMethod="reflect"><stop offset="0" stop-color="#6dc7ff"/><stop offset="1" stop-color="#e6abff"/></linearGradient><path fill="url(#gVFJ1KZfHJRLi2eJO6A2~f)" d="M23 37H25V39H23z"/><linearGradient id="gVFJ1KZfHJRLi2eJO6A2~g" x1="24" x2="24" y1="42" y2="44" gradientUnits="userSpaceOnUse" spreadMethod="reflect"><stop offset="0" stop-color="#6dc7ff"/><stop offset="1" stop-color="#e6abff"/></linearGradient><path fill="url(#gVFJ1KZfHJRLi2eJO6A2~g)" d="M23 42H25V44H23z"/></svg>